<svg width="67" height="68" viewBox="0 0 67 68" fill="none" xmlns="http://www.w3.org/2000/svg">
<g clip-path="url(#clip0_102_30)">
<mask id="mask0_102_30" style="mask-type:alpha" maskUnits="userSpaceOnUse" x="0" y="0" width="67" height="68">
<rect y="0.5" width="67" height="67" fill="#D9D9D9"/>
</mask>
<g mask="url(#mask0_102_30)">
<path d="M8.37502 59.125C6.8396 59.125 5.52519 58.5783 4.43179 57.4849C3.33839 56.3915 2.79169 55.0771 2.79169 53.5417V20.0417C2.79169 18.5063 3.33839 17.1919 4.43179 16.0985C5.52519 15.0051 6.8396 14.4584 8.37502 14.4584H17.1688L22.3334 8.87502H39.0834V14.4584H24.7761L19.6813 20.0417H8.37502V53.5417H53.0417V28.4167H58.625V53.5417C58.625 55.0771 58.0783 56.3915 56.9849 57.4849C55.8915 58.5783 54.5771 59.125 53.0417 59.125H8.37502ZM53.0417 20.0417V14.4584H47.4584V8.87502H53.0417V3.29169H58.625V8.87502H64.2084V14.4584H58.625V20.0417H53.0417ZM30.7084 49.3542C34.1979 49.3542 37.1641 48.1328 39.6068 45.6901C42.0495 43.2474 43.2709 40.2813 43.2709 36.7917C43.2709 33.3021 42.0495 30.336 39.6068 27.8932C37.1641 25.4505 34.1979 24.2292 30.7084 24.2292C27.2188 24.2292 24.2526 25.4505 21.8099 27.8932C19.3672 30.336 18.1459 33.3021 18.1459 36.7917C18.1459 40.2813 19.3672 43.2474 21.8099 45.6901C24.2526 48.1328 27.2188 49.3542 30.7084 49.3542ZM30.7084 43.7709C28.7542 43.7709 27.1025 43.0962 25.7531 41.7469C24.4038 40.3976 23.7292 38.7459 23.7292 36.7917C23.7292 34.8375 24.4038 33.1858 25.7531 31.8365C27.1025 30.4872 28.7542 29.8125 30.7084 29.8125C32.6625 29.8125 34.3143 30.4872 35.6636 31.8365C37.0129 33.1858 37.6875 34.8375 37.6875 36.7917C37.6875 38.7459 37.0129 40.3976 35.6636 41.7469C34.3143 43.0962 32.6625 43.7709 30.7084 43.7709Z" fill="#1C1B1F"/>
</g>
</g>
<defs>
<clipPath id="clip0_102_30">
<rect width="67" height="67" fill="white" transform="translate(0 0.5)"/>
</clipPath>
</defs>
</svg>
