<svg width="80" height="80" viewBox="0 0 80 80" fill="none" xmlns="http://www.w3.org/2000/svg">
<mask id="mask0_49_69" style="mask-type:alpha" maskUnits="userSpaceOnUse" x="0" y="0" width="80" height="80">
<rect x="0.5" y="0.5" width="79" height="79" fill="#D9D9D9" stroke="black"/>
</mask>
<g mask="url(#mask0_49_69)">
<path d="M22.8333 13.3333V56.1667H17.1666V13.3333C17.1666 11.6337 17.766 10.1911 18.9785 8.97854C20.191 7.76601 21.6336 7.16666 23.3333 7.16666H56.6666C58.3663 7.16666 59.8089 7.76601 61.0214 8.97854C62.2339 10.1911 62.8333 11.6337 62.8333 13.3333V56.1667H57.1666V13.3333V12.8333H56.6666H23.3333H22.8333V13.3333ZM31.8333 66.1667H17.1666V60.5H31.8333H33.0404L32.1868 59.6464L28.8737 56.3333L32.8333 52.3738L43.7929 63.3333L32.8333 74.2929L28.8737 70.3333L32.1868 67.0202L33.0404 66.1667H31.8333ZM44.3547 31.0214C43.1422 32.234 41.6996 32.8333 40 32.8333C38.3003 32.8333 36.8577 32.234 35.6452 31.0214C34.4326 29.8089 33.8333 28.3663 33.8333 26.6667C33.8333 24.967 34.4326 23.5244 35.6452 22.3119C36.8577 21.0993 38.3003 20.5 40 20.5C41.6996 20.5 43.1422 21.0993 44.3547 22.3119C45.5673 23.5244 46.1666 24.967 46.1666 26.6667C46.1666 28.3663 45.5673 29.8089 44.3547 31.0214ZM47.1666 60.5H62.8333V66.1667H47.1666V60.5Z" fill="#7AC73F" stroke="black"/>
</g>
</svg>
