<svg width="60" height="61" viewBox="0 0 60 61" fill="none" xmlns="http://www.w3.org/2000/svg">
<mask id="mask0_49_82" style="mask-type:alpha" maskUnits="userSpaceOnUse" x="0" y="0" width="60" height="61">
<rect y="0.5" width="60" height="60" fill="#D9D9D9"/>
</mask>
<g mask="url(#mask0_49_82)">
<path d="M12.5 43V10.5C12.5 9.125 12.9896 7.94792 13.9688 6.96875C14.9479 5.98958 16.125 5.5 17.5 5.5H42.5C43.875 5.5 45.0521 5.98958 46.0312 6.96875C47.0104 7.94792 47.5 9.125 47.5 10.5V43H42.5V10.5H17.5V43H12.5ZM30 25.5C31.375 25.5 32.5521 25.0104 33.5312 24.0312C34.5104 23.0521 35 21.875 35 20.5C35 19.125 34.5104 17.9479 33.5312 16.9688C32.5521 15.9896 31.375 15.5 30 15.5C28.625 15.5 27.4479 15.9896 26.4688 16.9688C25.4896 17.9479 25 19.125 25 20.5C25 21.875 25.4896 23.0521 26.4688 24.0312C27.4479 25.0104 28.625 25.5 30 25.5ZM24.625 56.75L21.125 53.25L23.875 50.5H12.5V45.5H23.875L21.125 42.75L24.625 39.25L33.375 48L24.625 56.75ZM35 50.5V45.5H47.5V50.5H35Z" fill="#1C1B1F"/>
</g>
</svg>
