<svg width="118" height="118" viewBox="0 0 118 118" fill="none" xmlns="http://www.w3.org/2000/svg">
<g opacity="0.4">
<mask id="mask0_90_23" style="mask-type:alpha" maskUnits="userSpaceOnUse" x="0" y="0" width="118" height="118">
<rect width="118" height="118" fill="#D9D9D9"/>
</mask>
<g mask="url(#mask0_90_23)">
<path d="M34.4167 103.25C31.7125 103.25 29.3976 102.287 27.4719 100.361C25.5462 98.4358 24.5833 96.1208 24.5833 93.4167V29.5H19.6667V19.6667H44.25V14.75H73.75V19.6667H98.3333V29.5H93.4167V93.4167C93.4167 96.1208 92.4538 98.4358 90.5281 100.361C88.6024 102.287 86.2875 103.25 83.5833 103.25H34.4167ZM83.5833 29.5H34.4167V93.4167H83.5833V29.5ZM44.25 83.5833H54.0833V39.3333H44.25V83.5833ZM63.9167 83.5833H73.75V39.3333H63.9167V83.5833Z" fill="#828282"/>
</g>
</g>
</svg>
