<svg width="80" height="80" viewBox="0 0 80 80" fill="none" xmlns="http://www.w3.org/2000/svg">
<mask id="mask0_49_52" style="mask-type:alpha" maskUnits="userSpaceOnUse" x="0" y="0" width="80" height="80">
<rect x="0.5" y="0.5" width="79" height="79" fill="#D9D9D9" stroke="black"/>
</mask>
<g mask="url(#mask0_49_52)">
<path d="M17.1667 20V19.5H16.6667H13.8334V13.8333H30H30.5V13.3333V10.5H49.5V13.3333V13.8333H50H66.1667V19.5H63.3334H62.8334V20V63.3333C62.8334 65.033 62.234 66.4756 61.0215 67.6881C59.809 68.9006 58.3664 69.5 56.6667 69.5H23.3334C21.6337 69.5 20.1911 68.9006 18.9786 67.6881C17.7661 66.4756 17.1667 65.033 17.1667 63.3333V20ZM57.1667 20V19.5H56.6667H23.3334H22.8334V20V63.3333V63.8333H23.3334H56.6667H57.1667V63.3333V20ZM36.1667 27.1667V56.1667H30.5V27.1667H36.1667ZM49.5 27.1667V56.1667H43.8334V27.1667H49.5Z" fill="#7AC73F" stroke="black"/>
</g>
</svg>
