<svg width="281" height="294" viewBox="0 0 281 294" fill="none" xmlns="http://www.w3.org/2000/svg">
<rect x="1" y="1" width="279" height="292" rx="21" fill="#ADD4FE" fill-opacity="0.5"/>
<rect x="1" y="1" width="279" height="292" rx="21" stroke="black" stroke-width="2" stroke-linecap="round" stroke-linejoin="round" stroke-dasharray="8 12"/>
<path d="M53.968 92C53.7227 92 53.5093 91.9307 53.328 91.792L50.72 89.408L48.08 85.968C47.9627 85.8187 47.888 85.728 47.856 85.696C47.824 85.6533 47.808 85.5573 47.808 85.408V77.248C47.808 77.0987 47.824 77.0027 47.856 76.96C47.8987 76.9173 47.9733 76.8267 48.08 76.688L50.528 73.52L53.328 70.88C53.4453 70.784 53.536 70.7253 53.6 70.704C53.6747 70.6827 53.7973 70.672 53.968 70.672H57.92C58.1867 70.672 58.32 70.8053 58.32 71.072V73.632C58.32 73.7173 58.3093 73.808 58.288 73.904C58.2773 73.9893 58.224 74.064 58.128 74.128L55.12 76.192L53.152 78.72V83.952L55.152 86.48L58.128 88.528C58.2133 88.5813 58.2667 88.6453 58.288 88.72C58.3093 88.7947 58.32 88.8747 58.32 88.96V91.6C58.32 91.8667 58.1867 92 57.92 92H53.968ZM61.628 92C61.3613 92 61.228 91.8667 61.228 91.6V71.072C61.228 70.8053 61.3613 70.672 61.628 70.672H65.9C66.1667 70.672 66.3 70.8053 66.3 71.072V91.6C66.3 91.8667 66.1667 92 65.9 92H61.628ZM70.2263 92C69.9596 92 69.8263 91.8667 69.8263 91.6V74.8C69.8263 74.5333 69.9596 74.4 70.2263 74.4H74.4823C74.7489 74.4 74.8823 74.5333 74.8823 74.8V91.6C74.8823 91.8667 74.7489 92 74.4823 92H70.2263ZM70.1463 73.072C69.9329 73.072 69.8263 72.9653 69.8263 72.752V70.72C69.8263 70.5067 69.9329 70.4 70.1463 70.4H74.5943C74.7863 70.4 74.8823 70.5067 74.8823 70.72V72.752C74.8823 72.9653 74.7863 73.072 74.5943 73.072H70.1463ZM83.8075 92C83.5942 92 83.3808 91.9307 83.1675 91.792L80.5595 90.032L78.7675 87.152C78.6928 87.0133 78.6288 86.9227 78.5755 86.88C78.5222 86.8267 78.4955 86.72 78.4955 86.56V79.84C78.4955 79.68 78.5168 79.5733 78.5595 79.52C78.6022 79.4667 78.6715 79.3707 78.7675 79.232L80.3995 76.512L83.1675 74.608C83.2635 74.544 83.3595 74.496 83.4555 74.464C83.5515 74.4213 83.6688 74.4 83.8075 74.4H86.5755C86.8422 74.4 86.9755 74.5333 86.9755 74.8V77.792C86.9755 77.8773 86.9648 77.968 86.9435 78.064C86.9328 78.16 86.8848 78.2347 86.7995 78.288L84.9755 79.2L83.5675 81.04V85.312L85.0555 87.008L86.7995 88.112C86.9062 88.176 86.9595 88.256 86.9595 88.352C86.9702 88.4373 86.9755 88.5227 86.9755 88.608V91.6C86.9755 91.8667 86.8422 92 86.5755 92H83.8075ZM99.05 92C98.9113 92 98.7993 91.9787 98.714 91.936C98.6393 91.8933 98.5913 91.8347 98.57 91.76L96.73 84.512H95.242V80.672H96.73L98.57 74.672C98.5913 74.5867 98.6393 74.528 98.714 74.496C98.7993 74.4533 98.9113 74.432 99.05 74.432H103.098C103.365 74.432 103.498 74.5653 103.498 74.832V76.528C103.498 76.6773 103.487 76.7947 103.466 76.88C103.445 76.9653 103.413 77.056 103.37 77.152L101.002 82.608V83.152L103.498 89.28C103.551 89.3973 103.589 89.504 103.61 89.6C103.631 89.6853 103.642 89.7813 103.642 89.888V91.6C103.642 91.8667 103.509 92 103.242 92H99.05ZM90.57 92C90.3033 92 90.17 91.8667 90.17 91.6V71.072C90.17 70.8053 90.3033 70.672 90.57 70.672H94.842C95.1087 70.672 95.242 70.8053 95.242 71.072V91.6C95.242 91.8667 95.1087 92 94.842 92H90.57ZM115.288 92C115.042 92 114.829 91.9093 114.648 91.728L111.976 89.072C111.805 88.8907 111.72 88.6773 111.72 88.432V78.128H111.048C110.781 78.128 110.648 77.9947 110.648 77.728V74.8C110.648 74.5333 110.781 74.4 111.048 74.4H111.72V72.4C111.72 72.1333 111.853 72 112.12 72H116.376C116.642 72 116.776 72.1333 116.776 72.4V74.4H118.328C118.594 74.4 118.727 74.5333 118.727 74.8V77.728C118.727 77.9947 118.594 78.128 118.328 78.128H116.776V86.672C116.776 86.8747 116.84 87.04 116.968 87.168L118.536 88.752C118.642 88.848 118.696 89.008 118.696 89.232V91.6C118.696 91.8667 118.562 92 118.296 92H115.288ZM125.608 92C125.362 92 125.149 91.9093 124.968 91.728L121.768 88.528C121.586 88.3573 121.496 88.144 121.496 87.888V78.512C121.496 78.256 121.586 78.0427 121.768 77.872L124.968 74.672C125.149 74.4907 125.362 74.4 125.608 74.4H130.456C130.712 74.4 130.925 74.4907 131.096 74.672L134.296 77.872C134.477 78.0427 134.568 78.256 134.568 78.512V87.888C134.568 88.144 134.477 88.3573 134.296 88.528L131.096 91.728C130.925 91.9093 130.712 92 130.456 92H125.608ZM127.48 88.272H128.6C128.941 88.272 129.176 88.2027 129.304 88.064C129.432 87.9253 129.496 87.68 129.496 87.328V79.072C129.496 78.72 129.432 78.4747 129.304 78.336C129.176 78.1973 128.941 78.128 128.6 78.128H127.48C127.128 78.128 126.888 78.1973 126.76 78.336C126.632 78.4747 126.568 78.72 126.568 79.072V87.328C126.568 87.68 126.632 87.9253 126.76 88.064C126.888 88.2027 127.128 88.272 127.48 88.272ZM147.501 92C147.245 92 147.031 91.9093 146.861 91.728L143.661 88.528C143.479 88.3573 143.389 88.144 143.389 87.888V71.072C143.389 70.8053 143.522 70.672 143.789 70.672H148.317C148.583 70.672 148.717 70.8053 148.717 71.072V87.408C148.717 87.6213 148.823 87.728 149.037 87.728H151.661V71.072C151.661 70.8053 151.794 70.672 152.061 70.672H156.589C156.855 70.672 156.989 70.8053 156.989 71.072V91.6C156.989 91.8667 156.855 92 156.589 92H147.501ZM161.226 96.8C160.96 96.8 160.826 96.6667 160.826 96.4V74.8C160.826 74.5333 160.96 74.4 161.226 74.4H164.538C164.73 74.4 164.917 74.4907 165.098 74.672L165.898 75.472L166.698 74.672C166.869 74.4907 167.082 74.4 167.338 74.4H169.786C170.032 74.4 170.245 74.4907 170.426 74.672L173.626 77.872C173.808 78.0427 173.898 78.256 173.898 78.512V87.888C173.898 88.144 173.808 88.3573 173.626 88.528L170.426 91.728C170.245 91.9093 170.032 92 169.786 92H167.338C167.082 92 166.869 91.9093 166.698 91.728L165.898 90.928V96.4C165.898 96.6667 165.765 96.8 165.498 96.8H161.226ZM165.898 88.272H167.914C168.266 88.272 168.506 88.2027 168.634 88.064C168.762 87.9253 168.826 87.68 168.826 87.328V79.072C168.826 78.72 168.762 78.4747 168.634 78.336C168.506 78.1973 168.266 78.128 167.914 78.128H166.794C166.453 78.128 166.218 78.1973 166.09 78.336C165.962 78.4747 165.898 78.72 165.898 79.072V88.272ZM177.847 92C177.58 92 177.447 91.8667 177.447 91.6V71.072C177.447 70.8053 177.58 70.672 177.847 70.672H182.119C182.385 70.672 182.519 70.8053 182.519 71.072V91.6C182.519 91.8667 182.385 92 182.119 92H177.847ZM190.045 92C189.8 92 189.586 91.9093 189.405 91.728L186.205 88.528C186.024 88.3573 185.933 88.144 185.933 87.888V78.512C185.933 78.256 186.024 78.0427 186.205 77.872L189.405 74.672C189.586 74.4907 189.8 74.4 190.045 74.4H194.893C195.149 74.4 195.362 74.4907 195.533 74.672L198.733 77.872C198.914 78.0427 199.005 78.256 199.005 78.512V87.888C199.005 88.144 198.914 88.3573 198.733 88.528L195.533 91.728C195.362 91.9093 195.149 92 194.893 92H190.045ZM191.917 88.272H193.037C193.378 88.272 193.613 88.2027 193.741 88.064C193.869 87.9253 193.933 87.68 193.933 87.328V79.072C193.933 78.72 193.869 78.4747 193.741 78.336C193.613 78.1973 193.378 78.128 193.037 78.128H191.917C191.565 78.128 191.325 78.1973 191.197 78.336C191.069 78.4747 191.005 78.72 191.005 79.072V87.328C191.005 87.68 191.069 87.9253 191.197 88.064C191.325 88.2027 191.565 88.272 191.917 88.272ZM206.733 92C206.487 92 206.274 91.9093 206.093 91.728L202.893 88.528C202.711 88.3573 202.621 88.144 202.621 87.888V78.512C202.621 78.256 202.711 78.0427 202.893 77.872L206.093 74.672C206.274 74.4907 206.487 74.4 206.733 74.4H215.293C215.559 74.4 215.693 74.5333 215.693 74.8V91.6C215.693 91.8667 215.559 92 215.293 92H211.965C211.826 92 211.719 91.9733 211.645 91.92C211.581 91.8667 211.506 91.8027 211.421 91.728L210.621 90.928L209.821 91.728C209.65 91.9093 209.437 92 209.181 92H206.733ZM208.605 88.272H209.725C210.066 88.272 210.301 88.2027 210.429 88.064C210.557 87.9253 210.621 87.68 210.621 87.328V78.128H208.605C208.253 78.128 208.013 78.1973 207.885 78.336C207.757 78.4747 207.693 78.72 207.693 79.072V87.328C207.693 87.68 207.757 87.9253 207.885 88.064C208.013 88.2027 208.253 88.272 208.605 88.272ZM223.42 92C223.175 92 222.961 91.9093 222.78 91.728L219.58 88.528C219.399 88.3573 219.308 88.144 219.308 87.888V78.512C219.308 78.256 219.399 78.0427 219.58 77.872L222.78 74.672C222.961 74.4907 223.175 74.4 223.42 74.4H225.868C226.124 74.4 226.337 74.4907 226.508 74.672L227.308 75.472V71.072C227.308 70.8053 227.441 70.672 227.708 70.672H231.98C232.247 70.672 232.38 70.8053 232.38 71.072V91.6C232.38 91.8667 232.247 92 231.98 92H228.652C228.513 92 228.407 91.9733 228.332 91.92C228.268 91.8667 228.193 91.8027 228.108 91.728L227.308 90.928L226.508 91.728C226.337 91.9093 226.124 92 225.868 92H223.42ZM225.292 88.272H226.412C226.753 88.272 226.988 88.2027 227.116 88.064C227.244 87.9253 227.308 87.68 227.308 87.328V78.128H225.292C224.94 78.128 224.7 78.1973 224.572 78.336C224.444 78.4747 224.38 78.72 224.38 79.072V87.328C224.38 87.68 224.444 87.9253 224.572 88.064C224.7 88.2027 224.94 88.272 225.292 88.272Z" fill="black"/>
<g opacity="0.4">
<mask id="mask0_31_32" style="mask-type:alpha" maskUnits="userSpaceOnUse" x="73" y="100" width="135" height="135">
<rect x="73.4061" y="100" width="134.188" height="134.188" rx="20" fill="#D9D9D9"/>
</mask>
<g mask="url(#mask0_31_32)">
<path d="M112.544 217.414C109.469 217.414 106.837 216.319 104.647 214.129C102.457 211.94 101.362 209.307 101.362 206.232V133.547H95.7707V122.365H123.726V116.773H157.273V122.365H185.229V133.547H179.638V206.232C179.638 209.307 178.543 211.94 176.353 214.129C174.163 216.319 171.531 217.414 168.456 217.414H112.544ZM168.456 133.547H112.544V206.232H168.456V133.547ZM123.726 195.05H134.909V144.729H123.726V195.05ZM146.091 195.05H157.273V144.729H146.091V195.05Z" fill="black"/>
</g>
</g>
</svg>
