<svg width="281" height="254" viewBox="0 0 281 254" fill="none" xmlns="http://www.w3.org/2000/svg">
<g id="Component 1">
<g id="Group 4">
<g id="Rectangle 3">
<mask id="path-1-outside-1_196_57" maskUnits="userSpaceOnUse" x="0" y="0" width="281" height="254" fill="black">
<rect fill="white" width="281" height="254"/>
<path d="M2 27C2 13.1929 13.1929 2 27 2H254C267.807 2 279 13.1929 279 27V227C279 240.807 267.807 252 254 252H27C13.1929 252 2 240.807 2 227V27Z"/>
</mask>
<path d="M2 27C2 13.1929 13.1929 2 27 2H254C267.807 2 279 13.1929 279 27V227C279 240.807 267.807 252 254 252H27C13.1929 252 2 240.807 2 227V27Z" fill="#F3FFE3"/>
<path d="M2 27C2 13.1929 13.1929 2 27 2H254C267.807 2 279 13.1929 279 27V227C279 240.807 267.807 252 254 252H27C13.1929 252 2 240.807 2 227V27Z" stroke="black" stroke-width="4" stroke-linecap="round" stroke-linejoin="round" stroke-dasharray="8 8" mask="url(#path-1-outside-1_196_57)"/>
</g>
<path id="Upload Waste Image" d="M81.7576 213C81.5576 213 81.4576 212.9 81.4576 212.7V197.304C81.4576 197.104 81.5576 197.004 81.7576 197.004H89.0776C89.2696 197.004 89.4296 197.068 89.5576 197.196L91.9576 199.596C92.0936 199.732 92.1616 199.892 92.1616 200.076V209.916C92.1616 210.108 92.0936 210.268 91.9576 210.396L89.5576 212.796C89.4296 212.932 89.2696 213 89.0776 213H81.7576ZM85.4656 209.796H87.6616C87.9976 209.796 88.1656 209.572 88.1656 209.124V200.88C88.1656 200.424 87.9976 200.196 87.6616 200.196H85.4656V209.796ZM95.2478 213C95.0478 213 94.9478 212.9 94.9478 212.7V197.304C94.9478 197.104 95.0478 197.004 95.2478 197.004H101.752C101.944 197.004 102.104 197.056 102.232 197.16L104.992 199.896C105.08 199.976 105.132 200.044 105.148 200.1C105.172 200.156 105.184 200.248 105.184 200.376V203.664C105.184 203.768 105.144 203.86 105.064 203.94L103.744 205.224L102.628 206.184L103.948 207.936L105.304 210.84C105.336 210.912 105.36 210.984 105.376 211.056C105.4 211.12 105.412 211.2 105.412 211.296V212.7C105.412 212.9 105.312 213 105.112 213H101.944C101.768 213 101.648 212.92 101.584 212.76L99.6518 207.144H98.7518V212.7C98.7518 212.9 98.6518 213 98.4518 213H95.2478ZM100.072 204.204C100.736 204.204 101.188 204.068 101.428 203.796C101.668 203.516 101.788 202.996 101.788 202.236C101.788 201.468 101.668 200.948 101.428 200.676C101.188 200.396 100.736 200.256 100.072 200.256C99.4158 200.256 98.9638 200.396 98.7158 200.676C98.4678 200.948 98.3438 201.468 98.3438 202.236C98.3438 202.996 98.4678 203.516 98.7158 203.796C98.9638 204.068 99.4158 204.204 100.072 204.204ZM107.539 213C107.339 213 107.239 212.9 107.239 212.7V201.576C107.239 201.472 107.279 201.352 107.359 201.216L110.203 197.184C110.291 197.064 110.419 197.004 110.587 197.004H114.559C114.735 197.004 114.863 197.064 114.943 197.184L117.799 201.216C117.879 201.328 117.919 201.448 117.919 201.576V212.7C117.919 212.9 117.819 213 117.619 213H114.223C114.023 213 113.923 212.9 113.923 212.7V207.6H111.247V212.7C111.247 212.9 111.147 213 110.947 213H107.539ZM112.579 205.02C113.315 205.02 113.811 204.86 114.067 204.54C114.331 204.212 114.463 203.592 114.463 202.68C114.463 201.768 114.331 201.152 114.067 200.832C113.811 200.504 113.315 200.34 112.579 200.34C111.851 200.34 111.355 200.504 111.091 200.832C110.835 201.152 110.707 201.768 110.707 202.68C110.707 203.592 110.835 204.212 111.091 204.54C111.355 204.86 111.851 205.02 112.579 205.02ZM123.813 213C123.621 213 123.461 212.932 123.333 212.796L120.933 210.396C120.797 210.268 120.729 210.108 120.729 209.916V200.076C120.729 199.892 120.797 199.732 120.933 199.596L123.333 197.196C123.461 197.068 123.621 197.004 123.813 197.004H130.905C131.105 197.004 131.205 197.104 131.205 197.304V199.896C131.205 200.096 131.105 200.196 130.905 200.196H125.133C125.021 200.196 124.925 200.236 124.845 200.316C124.765 200.396 124.725 200.492 124.725 200.604V209.376C124.725 209.488 124.765 209.584 124.845 209.664C124.925 209.744 125.021 209.784 125.133 209.784H127.725V206.58H126.189C125.989 206.58 125.889 206.48 125.889 206.28V203.7C125.889 203.5 125.989 203.4 126.189 203.4H131.109C131.309 203.4 131.409 203.5 131.409 203.7V209.916C131.409 210.108 131.341 210.268 131.205 210.396L128.805 212.796C128.677 212.932 128.517 213 128.325 213H123.813ZM138.045 213C137.845 213 137.745 212.9 137.745 212.7V197.304C137.745 197.104 137.845 197.004 138.045 197.004H141.441C141.641 197.004 141.741 197.104 141.741 197.304V212.7C141.741 212.9 141.641 213 141.441 213H138.045ZM144.912 213C144.712 213 144.612 212.9 144.612 212.7V199.68C144.612 199.496 144.68 199.336 144.816 199.2L146.808 197.196C146.944 197.068 147.104 197.004 147.288 197.004H150.036C150.22 197.004 150.38 197.068 150.516 197.196L152.532 199.224H153.096L155.112 197.196C155.248 197.068 155.408 197.004 155.592 197.004H158.328C158.52 197.004 158.68 197.068 158.808 197.196L160.812 199.2C160.948 199.336 161.016 199.496 161.016 199.68V212.7C161.016 212.9 160.916 213 160.716 213H157.308C157.108 213 157.008 212.9 157.008 212.7V200.196H154.812V212.7C154.812 212.9 154.712 213 154.512 213H151.116C150.916 213 150.816 212.9 150.816 212.7V200.196H148.608V212.7C148.608 212.9 148.508 213 148.308 213H144.912ZM164.117 213C163.917 213 163.817 212.9 163.817 212.7V201.576C163.817 201.472 163.857 201.352 163.937 201.216L166.781 197.184C166.869 197.064 166.997 197.004 167.165 197.004H171.137C171.313 197.004 171.441 197.064 171.521 197.184L174.377 201.216C174.457 201.328 174.497 201.448 174.497 201.576V212.7C174.497 212.9 174.397 213 174.197 213H170.801C170.601 213 170.501 212.9 170.501 212.7V207.6H167.825V212.7C167.825 212.9 167.725 213 167.525 213H164.117ZM169.157 205.02C169.893 205.02 170.389 204.86 170.645 204.54C170.909 204.212 171.041 203.592 171.041 202.68C171.041 201.768 170.909 201.152 170.645 200.832C170.389 200.504 169.893 200.34 169.157 200.34C168.429 200.34 167.933 200.504 167.669 200.832C167.413 201.152 167.285 201.768 167.285 202.68C167.285 203.592 167.413 204.212 167.669 204.54C167.933 204.86 168.429 205.02 169.157 205.02ZM180.391 213C180.199 213 180.039 212.932 179.911 212.796L177.511 210.396C177.375 210.268 177.307 210.108 177.307 209.916V200.076C177.307 199.892 177.375 199.732 177.511 199.596L179.911 197.196C180.039 197.068 180.199 197.004 180.391 197.004H187.483C187.683 197.004 187.783 197.104 187.783 197.304V199.896C187.783 200.096 187.683 200.196 187.483 200.196H181.711C181.599 200.196 181.503 200.236 181.423 200.316C181.343 200.396 181.303 200.492 181.303 200.604V209.376C181.303 209.488 181.343 209.584 181.423 209.664C181.503 209.744 181.599 209.784 181.711 209.784H184.303V206.58H182.767C182.567 206.58 182.467 206.48 182.467 206.28V203.7C182.467 203.5 182.567 203.4 182.767 203.4H187.687C187.887 203.4 187.987 203.5 187.987 203.7V209.916C187.987 210.108 187.919 210.268 187.783 210.396L185.383 212.796C185.255 212.932 185.095 213 184.903 213H180.391ZM190.803 213C190.603 213 190.503 212.9 190.503 212.7V197.304C190.503 197.104 190.603 197.004 190.803 197.004H199.167C199.367 197.004 199.467 197.104 199.467 197.304V199.896C199.467 200.096 199.367 200.196 199.167 200.196H194.499V203.604H198.759C198.959 203.604 199.059 203.704 199.059 203.904V206.1C199.059 206.3 198.959 206.4 198.759 206.4H194.499V209.796H199.167C199.367 209.796 199.467 209.896 199.467 210.096V212.7C199.467 212.9 199.367 213 199.167 213H190.803Z" fill="#A19898"/>
<g id="delete" opacity="0.4">
<mask id="mask0_196_57" style="mask-type:alpha" maskUnits="userSpaceOnUse" x="85" y="63" width="118" height="118">
<rect id="Bounding box" x="85" y="63" width="118" height="118" fill="#D9D9D9"/>
</mask>
<g mask="url(#mask0_196_57)">
<path id="delete_2" d="M119.417 166.25C116.713 166.25 114.398 165.287 112.472 163.361C110.546 161.436 109.583 159.121 109.583 156.417V92.5H104.667V82.6667H129.25V77.75H158.75V82.6667H183.333V92.5H178.417V156.417C178.417 159.121 177.454 161.436 175.528 163.361C173.602 165.287 171.288 166.25 168.583 166.25H119.417ZM168.583 92.5H119.417V156.417H168.583V92.5ZM129.25 146.583H139.083V102.333H129.25V146.583ZM148.917 146.583H158.75V102.333H148.917V146.583Z" fill="#828282"/>
</g>
</g>
</g>
</g>
</svg>
