<svg width="64" height="64" viewBox="0 0 64 64" fill="none" xmlns="http://www.w3.org/2000/svg">
<mask id="mask0_188_125" style="mask-type:alpha" maskUnits="userSpaceOnUse" x="0" y="0" width="64" height="64">
<rect width="64" height="64" fill="#D9D9D9"/>
</mask>
<g mask="url(#mask0_188_125)">
<path d="M12 55.9999C10.8889 55.9999 9.94444 55.611 9.16667 54.8332C8.38889 54.0555 8 53.111 8 51.9999V46.9332L18.6667 37.4666V55.9999H12ZM21.3333 55.9999V45.3332H42.6667V55.9999H21.3333ZM45.3333 55.9999V34.1332L33.9333 23.9999L42 16.8666L54.6667 28.1332C55.1111 28.5332 55.4444 28.9888 55.6667 29.4999C55.8889 30.011 56 30.5555 56 31.1332V51.9999C56 53.111 55.6111 54.0555 54.8333 54.8332C54.0556 55.611 53.1111 55.9999 52 55.9999H45.3333ZM8 43.3332V31.1332C8 30.5555 8.11111 29.9999 8.33333 29.4666C8.55556 28.9332 8.88889 28.4888 9.33333 28.1332L29.3333 10.3999C29.6889 10.0443 30.1 9.78879 30.5667 9.63324C31.0333 9.47768 31.5111 9.3999 32 9.3999C32.4889 9.3999 32.9667 9.47768 33.4333 9.63324C33.9 9.78879 34.3111 10.0443 34.6667 10.3999L40 15.1332L8 43.3332Z" fill="#1C1B1F"/>
</g>
</svg>
