<svg width="60" height="61" viewBox="0 0 60 61" fill="none" xmlns="http://www.w3.org/2000/svg">
<mask id="mask0_49_74" style="mask-type:alpha" maskUnits="userSpaceOnUse" x="0" y="0" width="60" height="61">
<rect y="0.5" width="60" height="60" fill="#D9D9D9"/>
</mask>
<g mask="url(#mask0_49_74)">
<path d="M30 30.5C31.375 30.5 32.5521 30.0104 33.5312 29.0312C34.5104 28.0521 35 26.875 35 25.5C35 24.125 34.5104 22.9479 33.5312 21.9688C32.5521 20.9896 31.375 20.5 30 20.5C28.625 20.5 27.4479 20.9896 26.4688 21.9688C25.4896 22.9479 25 24.125 25 25.5C25 26.875 25.4896 28.0521 26.4688 29.0312C27.4479 30.0104 28.625 30.5 30 30.5ZM30 48.875C35.0833 44.2083 38.8542 39.9688 41.3125 36.1562C43.7708 32.3438 45 28.9583 45 26C45 21.4583 43.5521 17.7396 40.6562 14.8438C37.7604 11.9479 34.2083 10.5 30 10.5C25.7917 10.5 22.2396 11.9479 19.3438 14.8438C16.4479 17.7396 15 21.4583 15 26C15 28.9583 16.2292 32.3438 18.6875 36.1562C21.1458 39.9688 24.9167 44.2083 30 48.875ZM30 55.5C23.2917 49.7917 18.2812 44.4896 14.9688 39.5938C11.6562 34.6979 10 30.1667 10 26C10 19.75 12.0104 14.7708 16.0313 11.0625C20.0521 7.35417 24.7083 5.5 30 5.5C35.2917 5.5 39.9479 7.35417 43.9688 11.0625C47.9896 14.7708 50 19.75 50 26C50 30.1667 48.3438 34.6979 45.0312 39.5938C41.7188 44.4896 36.7083 49.7917 30 55.5Z" fill="#1C1B1F"/>
</g>
</svg>
