<svg width="80" height="80" viewBox="0 0 80 80" fill="none" xmlns="http://www.w3.org/2000/svg">
<mask id="mask0_49_63" style="mask-type:alpha" maskUnits="userSpaceOnUse" x="0" y="0" width="80" height="80">
<rect x="0.5" y="0.5" width="79" height="79" fill="#D9D9D9" stroke="black"/>
</mask>
<g mask="url(#mask0_49_63)">
<path d="M39.6619 64.8683L40 65.1787L40.3382 64.8683C47.1329 58.6306 52.194 52.9452 55.5036 47.8126C58.8077 42.6884 60.5 38.079 60.5 34C60.5 27.8277 58.5274 22.737 54.5619 18.7714C50.6042 14.8137 45.7397 12.8333 40 12.8333C34.2604 12.8333 29.3959 14.8137 25.4382 18.7714C21.4726 22.737 19.5 27.8277 19.5 34C19.5 38.079 21.1924 42.6884 24.4965 47.8126C27.806 52.9452 32.8672 58.6306 39.6619 64.8683ZM44.3548 37.6881C43.1423 38.9006 41.6997 39.5 40 39.5C38.3004 39.5 36.8578 38.9006 35.6453 37.6881C34.4327 36.4756 33.8334 35.033 33.8334 33.3333C33.8334 31.6337 34.4327 30.1911 35.6453 28.9785C36.8578 27.766 38.3004 27.1667 40 27.1667C41.6997 27.1667 43.1423 27.766 44.3548 28.9785C45.5674 30.1911 46.1667 31.6336 46.1667 33.3333C46.1667 35.033 45.5674 36.4756 44.3548 37.6881ZM40 72.6762C31.238 65.1871 24.7015 58.243 20.3725 51.8448C15.9893 45.3665 13.8334 39.4219 13.8334 34C13.8334 25.7844 16.4706 19.2867 21.714 14.4509C26.9862 9.58843 33.0747 7.16666 40 7.16666C46.9254 7.16666 53.0139 9.58843 58.2861 14.4509C63.5295 19.2867 66.1667 25.7844 66.1667 34C66.1667 39.4219 64.0108 45.3665 59.6276 51.8448C55.2986 58.243 48.7621 65.1871 40 72.6762Z" fill="#7AC73F" stroke="black"/>
</g>
</svg>
