<svg width="67" height="68" viewBox="0 0 67 68" fill="none" xmlns="http://www.w3.org/2000/svg">
<mask id="mask0_36_157" style="mask-type:alpha" maskUnits="userSpaceOnUse" x="0" y="0" width="67" height="68">
<rect y="0.5" width="67" height="67" fill="#D9D9D9"/>
</mask>
<g mask="url(#mask0_36_157)">
<path d="M30.7083 45.1667V22.4146L23.45 29.6729L19.5417 25.625L33.5 11.6667L47.4583 25.625L43.55 29.6729L36.2917 22.4146V45.1667H30.7083ZM16.75 56.3334C15.2146 56.3334 13.9002 55.7867 12.8068 54.6933C11.7134 53.5998 11.1667 52.2854 11.1667 50.75V42.375H16.75V50.75H50.25V42.375H55.8333V50.75C55.8333 52.2854 55.2866 53.5998 54.1932 54.6933C53.0998 55.7867 51.7854 56.3334 50.25 56.3334H16.75Z" fill="#1C1B1F"/>
</g>
</svg>
