<svg width="80" height="80" viewBox="0 0 80 80" fill="none" xmlns="http://www.w3.org/2000/svg">
<mask id="mask0_49_66" style="mask-type:alpha" maskUnits="userSpaceOnUse" x="0" y="0" width="80" height="80">
<rect x="0.5" y="0.5" width="79" height="79" fill="#D9D9D9" stroke="black"/>
</mask>
<g mask="url(#mask0_49_66)">
<path d="M35.204 40.0981L21.269 36.6336L36.7638 27.0081L37.0206 26.8486L36.9987 26.5471L35.668 8.2307L49.6776 20.0489L49.9087 20.2438L50.1886 20.1297L67.0974 13.241L60.2859 30.2306L60.1738 30.5103L60.3687 30.7401L72.186 44.6704L53.8674 43.4178L53.5686 43.3974L53.4096 43.6513L43.7012 59.1534L40.2352 45.2127L40.0218 44.3544L39.3964 44.9798L14.6667 69.7096L10.7065 65.7494L35.4375 40.9363L36.0606 40.3111L35.204 40.0981ZM45.7656 43.6238L46.0599 44.7757L46.6773 43.7596L50.5181 37.4383L57.9625 37.9986L59.1516 38.0881L58.3819 37.1773L53.5771 31.4916L56.3798 24.6052L56.827 23.5064L55.7282 23.9536L48.8391 26.7573L43.1529 22.0321L42.2452 21.2779L42.3348 22.4546L42.8951 29.8185L36.5698 33.7418L35.5576 34.3696L36.7146 34.6524L43.9232 36.4145L45.7656 43.6238ZM22.6262 20.4167L16.6667 26.3762L10.7071 20.4167L16.6667 14.4571L22.6262 20.4167ZM60 69.7096L54.0404 63.75L60 57.7905L65.9596 63.75L60 69.7096Z" fill="#7AC73F" stroke="black"/>
</g>
</svg>
