<svg width="60" height="61" viewBox="0 0 60 61" fill="none" xmlns="http://www.w3.org/2000/svg">
<mask id="mask0_49_78" style="mask-type:alpha" maskUnits="userSpaceOnUse" x="0" y="0" width="60" height="61">
<rect y="0.5" width="60" height="60" fill="#D9D9D9"/>
</mask>
<g mask="url(#mask0_49_78)">
<path d="M11 53L7.5 49.5L26.3125 30.625L15 27.8125L27.375 20.125L26.3125 5.5L37.5 14.9375L51 9.4375L45.5625 23L55 34.125L40.375 33.125L32.625 45.5L29.8125 34.1875L11 53ZM12.5 20.5L7.5 15.5L12.5 10.5L17.5 15.5L12.5 20.5ZM34.6875 32.8125L37.6875 27.875L43.5 28.3125L39.75 23.875L41.9375 18.5L36.5625 20.6875L32.125 17L32.5625 22.75L27.625 25.8125L33.25 27.1875L34.6875 32.8125ZM45 53L40 48L45 43L50 48L45 53Z" fill="#1C1B1F"/>
</g>
</svg>
